P3
160 30
255
0 0 0  0 0 0  0 0 0  0 0 0  1 1 0  6 8 2
6 8 2  4 4 1  1 1 0  0 0 0  0 0 0  0 0 0
0 0 0  0 0 0  0 0 0  0 0 0  3 4 1  6 8 2
6 8 2  1 1 0  0 0 0  0 0 0  0 0 0  0 0 0
0 0 0  0 0 0  0 0 0  0 0 0  0 0 0  0 0 0
0 0 0  0 0 0  0 0 0  0 0 0  0 0 0  0 0 0
0 0 0  11 11 11  21 21 21  21 21 21  4 4 4  0 0 0
0 0 0  0 0 0  0 0 0  0 0 0  0 0 0  0 0 0
0 0 0  0 0 0  0 0 0  0 0 0  0 0 0  0 0 0
0 0 0  0 0 0  0 0 0  0 0 0  1 1 0  6 8 2
6 8 2  4 4 1  1 1 0  0 0 0  0 0 0  0 0 0
0 0 0  0 0 0  0 0 0  0 0 0  3 4 1  6 8 2
6 8 2  1 1 0  0 0 0  0 0 0  0 0 0  0 0 0
0 0 0  0 0 0  0 0 0  0 0 0  0 0 0  0 0 0
0 0 0  0 0 0  0 0 0  0 0 0  0 0 0  0 0 0
0 0 0  11 11 11  21 21 21  21 21 21  4 4 4  0 0 0
0 0 0  0 0 0  0 0 0  0 0 0  0 0 0  0 0 0
0 0 0  0 0 0  0 0 0  0 0 0  0 0 0  0 0 0
0 0 0  0 0 0  0 0 0  0 0 0  1 1 0  6 8 2
6 8 2  4 4 1  1 1 0  0 0 0  0 0 0  0 0 0
0 0 0  0 0 0  0 0 0  0 0 0  3 4 1  6 8 2
6 8 2  1 1 0  0 0 0  0 0 0  0 0 0  0 0 0
0 0 0  0 0 0  0 0 0  0 0 0  0 0 0  0 0 0
0 0 0  0 0 0  0 0 0  0 0 0  0 0 0  0 0 0
0 0 0  11 11 11  21 21 21  21 21 21  4 4 4  0 0 0
0 0 0  0 0 0  0 0 0  0 0 0  0 0 0  0 0 0
0 0 0  0 0 0  0 0 0  0 0 0
0 0 0  0 0 0  13 18 4  48 70 16  81 78 17  89 128 30
91 131 31  85 123 29  82 118 28  45 51 13  6 8 2  0 0 0
0 0 0  3 4 1  23 34 8  51 74 17  85 123 29  91 131 31
91 131 31  82 118 28  51 74 17  16 24 6  1 1 0  0 0 0
0 0 0  0 0 0  0 0 0  0 0 0  0 0 0  0 0 0
0 0 0  0 0 0  0 0 0  0 0 0  0 0 0  0 0 0
24 24 24  32 32 32  11 11 11  11 11 11  29 29 29  36 36 36
4 4 4  0 0 0  0 0 0  0 0 0  0 0 0  0 0 0
0 0 0  0 0 0  0 0 0  0 0 0  0 0 0  0 0 0
0 0 0  0 0 0  13 18 4  48 70 16  81 78 17  89 128 30
91 131 31  85 123 29  82 118 28  45 51 13  6 8 2  0 0 0
0 0 0  3 4 1  23 34 8  51 74 17  85 123 29  91 131 31
91 131 31  82 118 28  51 74 17  16 24 6  1 1 0  0 0 0
0 0 0  0 0 0  0 0 0  0 0 0  0 0 0  0 0 0
0 0 0  0 0 0  0 0 0  0 0 0  0 0 0  0 0 0
24 24 24  32 32 32  11 11 11  11 11 11  29 29 29  36 36 36
4 4 4  0 0 0  0 0 0  0 0 0  0 0 0  0 0 0
0 0 0  0 0 0  0 0 0  0 0 0  0 0 0  0 0 0
0 0 0  0 0 0  13 18 4  48 70 16  81 78 17  89 128 30
91 131 31  85 123 29  82 118 28  45 51 13  6 8 2  0 0 0
0 0 0  3 4 1  23 34 8  51 74 17  85 123 29  91 131 31
91 131 31  82 118 28  51 74 17  16 24 6  1 1 0  0 0 0
0 0 0  0 0 0  0 0 0  0 0 0  0 0 0  0 0 0
0 0 0  0 0 0  0 0 0  0 0 0  0 0 0  0 0 0
24 24 24  32 32 32  11 11 11  11 11 11  29 29 29  36 36 36
4 4 4  0 0 0  0 0 0  0 0 0  0 0 0  0 0 0
0 0 0  0 0 0  0 0 0  0 0 0
0 0 0  1 1 0  51 74 17  115 167 39  116 168 40  116 168 40
117 169 40  117 169 40  117 169 40  115 166 40  82 118 28  3 4 1
0 0 0  51 74 17  115 166 40  117 169 40  117 169 40  117 169 40
117 169 40  115 166 40  116 168 40  82 118 28  3 4 1  0 0 0
0 0 0  0 0 0  0 0 0  0 0 0  0 0 0  0 0 0
0 0 0  0 0 0  0 0 0  0 0 0  0 0 0  24 24 24
8 8 8  0 0 0  0 0 0  0 0 0  20 20 20  24 24 24
44 44 44  0 0 0  0 0 0  0 0 0  0 0 0  0 0 0
0 0 0  0 0 0  0 0 0  0 0 0  0 0 0  0 0 0
0 0 0  1 1 0  51 74 17  115 167 39  116 168 40  116 168 40
117 169 40  117 169 40  117 169 40  115 166 40  82 118 28  3 4 1
0 0 0  51 74 17  115 166 40  117 169 40  117 169 40  117 169 40
117 169 40  115 166 40  116 168 40  82 118 28  3 4 1  0 0 0
0 0 0  0 0 0  0 0 0  0 0 0  0 0 0  0 0 0
0 0 0  0 0 0  0 0 0  0 0 0  0 0 0  24 24 24
8 8 8  0 0 0  0 0 0  0 0 0  20 20 20  24 24 24
44 44 44  0 0 0  0 0 0  0 0 0  0 0 0  0 0 0
0 0 0  0 0 0  0 0 0  0 0 0  0 0 0  0 0 0
0 0 0  1 1 0  51 74 17  115 167 39  116 168 40  116 168 40
117 169 40  117 169 40  117 169 40  115 166 40  82 118 28  3 4 1
0 0 0  51 74 17  115 166 40  117 169 40  117 169 40  117 169 40
117 169 40  115 166 40  116 168 40  82 118 28  3 4 1  0 0 0
0 0 0  0 0 0  0 0 0  0 0 0  0 0 0  0 0 0
0 0 0  0 0 0  0 0 0  0 0 0  0 0 0  24 24 24
8 8 8  0 0 0  0 0 0  0 0 0  20 20 20  24 24 24
44 44 44  0 0 0  0 0 0  0 0 0  0 0 0  0 0 0
0 0 0  0 0 0  0 0 0  0 0 0
0 0 0  1 1 0  51 74 17  116 168 40  115 167 39  91 131 31
89 128 30  115 166 40  117 169 40  117 169 40  116 168 40  23 34 8
10 14 3  115 166 40  117 169 40  117 169 40  115 166 40  91 131 31
91 131 31  115 166 40  117 169 40  82 118 28  3 4 1  0 0 0
0 0 0  0 0 0  0 0 0  0 0 0  0 0 0  0 0 0
0 0 0  0 0 0  0 0 0  0 0 0  0 0 0  32 32 32
0 0 0  0 0 0  0 0 0  0 0 0  36 36 36  36 36 36
8 8 8  24 24 24  0 0 0  0 0 0  0 0 0  0 0 0
0 0 0  0 0 0  0 0 0  0 0 0  0 0 0  0 0 0
0 0 0  1 1 0  51 74 17  116 168 40  115 167 39  91 131 31
89 128 30  115 166 40  117 169 40  117 169 40  116 168 40  23 34 8
10 14 3  115 166 40  117 169 40  117 169 40  115 166 40  91 131 31
91 131 31  115 166 40  117 169 40  82 118 28  3 4 1  0 0 0
0 0 0  0 0 0  0 0 0  0 0 0  0 0 0  0 0 0
0 0 0  0 0 0  0 0 0  0 0 0  0 0 0  32 32 32
0 0 0  0 0 0  0 0 0  0 0 0  36 36 36  36 36 36
8 8 8  24 24 24  0 0 0  0 0 0  0 0 0  0 0 0
0 0 0  0 0 0  0 0 0  0 0 0  0 0 0  0 0 0
0 0 0  1 1 0  51 74 17  116 168 40  115 167 39  91 131 31
89 128 30  115 166 40  117 169 40  117 169 40  116 168 40  23 34 8
10 14 3  115 166 40  117 169 40  117 169 40  115 166 40  91 131 31
91 131 31  115 166 40  117 169 40  82 118 28  3 4 1  0 0 0
0 0 0  0 0 0  0 0 0  0 0 0  0 0 0  0 0 0
0 0 0  0 0 0  0 0 0  0 0 0  0 0 0  32 32 32
0 0 0  0 0 0  0 0 0  0 0 0  36 36 36  36 36 36
8 8 8  24 24 24  0 0 0  0 0 0  0 0 0  0 0 0
0 0 0  0 0 0  0 0 0  0 0 0
0 0 0  0 0 0  23 34 8  115 166 40  117 169 40  117 169 40
115 166 40  82 118 28  82 118 28  115 166 40  117 169 40  48 70 16
23 34 8  117 169 40  115 166 40  89 128 30  81 78 17  116 138 32
117 169 40  117 169 40  116 168 40  48 70 16  1 1 0  0 0 0
0 0 0  0 0 0  0 0 0  0 0 0  0 0 0  0 0 0
0 0 0  0 0 0  0 0 0  0 0 0  8 8 8  24 24 24
0 0 0  0 0 0  0 0 0  0 0 0  0 0 0  0 0 0
0 0 0  32 32 32  0 0 0  0 0 0  0 0 0  0 0 0
0 0 0  0 0 0  0 0 0  0 0 0  0 0 0  0 0 0
0 0 0  0 0 0  23 34 8  115 166 40  117 169 40  117 169 40
115 166 40  82 118 28  82 118 28  115 166 40  117 169 40  48 70 16
23 34 8  117 169 40  115 166 40  89 128 30  81 78 17  116 138 32
117 169 40  117 169 40  116 168 40  48 70 16  1 1 0  0 0 0
0 0 0  0 0 0  0 0 0  0 0 0  0 0 0  0 0 0
0 0 0  0 0 0  0 0 0  0 0 0  8 8 8  24 24 24
0 0 0  0 0 0  0 0 0  0 0 0  0 0 0  0 0 0
0 0 0  32 32 32  0 0 0  0 0 0  0 0 0  0 0 0
0 0 0  0 0 0  0 0 0  0 0 0  0 0 0  0 0 0
0 0 0  0 0 0  23 34 8  115 166 40  117 169 40  117 169 40
115 166 40  82 118 28  82 118 28  115 166 40  117 169 40  48 70 16
23 34 8  117 169 40  115 166 40  89 128 30  81 78 17  116 138 32
117 169 40  117 169 40  116 168 40  48 70 16  1 1 0  0 0 0
0 0 0  0 0 0  0 0 0  0 0 0  0 0 0  0 0 0
0 0 0  0 0 0  0 0 0  0 0 0  8 8 8  24 24 24
0 0 0  0 0 0  0 0 0  0 0 0  0 0 0  0 0 0
0 0 0  32 32 32  0 0 0  0 0 0  0 0 0  0 0 0
0 0 0  0 0 0  0 0 0  0 0 0
0 0 0  0 0 0  4 4 1  82 118 28  117 169 40  117 169 40
117 169 40  117 169 40  85 123 29  48 70 16  89 128 30  16 24 6
6 8 2  82 118 28  51 74 17  82 118 28  115 167 39  117 169 40
117 169 40  117 169 40  91 131 31  13 18 4  0 0 0  0 0 0
0 0 0  0 0 0  0 0 0  0 0 0  0 0 0  0 0 0
0 0 0  0 0 0  0 0 0  0 0 0  11 11 11  21 21 21
80 80 80  36 36 36  0 0 0  64 64 64  159 159 159  16 16 16
0 0 0  32 32 32  0 0 0  0 0 0  0 0 0  0 0 0
0 0 0  0 0 0  0 0 0  0 0 0  0 0 0  0 0 0
0 0 0  0 0 0  4 4 1  82 118 28  117 169 40  117 169 40
117 169 40  117 169 40  85 123 29  48 70 16  89 128 30  16 24 6
6 8 2  82 118 28  51 74 17  82 118 28  115 167 39  117 169 40
117 169 40  117 169 40  91 131 31  13 18 4  0 0 0  0 0 0
0 0 0  0 0 0  0 0 0  0 0 0  0 0 0  0 0 0
0 0 0  0 0 0  0 0 0  0 0 0  11 11 11  21 21 21
80 80 80  36 36 36  0 0 0  64 64 64  159 159 159  16 16 16
0 0 0  32 32 32  0 0 0  0 0 0  0 0 0  0 0 0
0 0 0  0 0 0  0 0 0  0 0 0  0 0 0  0 0 0
0 0 0  0 0 0  4 4 1  82 118 28  117 169 40  117 169 40
117 169 40  117 169 40  85 123 29  48 70 16  89 128 30  16 24 6
6 8 2  82 118 28  51 74 17  82 118 28  115 167 39  117 169 40
117 169 40  117 169 40  91 131 31  13 18 4  0 0 0  0 0 0
0 0 0  0 0 0  0 0 0  0 0 0  0 0 0  0 0 0
0 0 0  0 0 0  0 0 0  0 0 0  11 11 11  21 21 21
80 80 80  36 36 36  0 0 0  64 64 64  159 159 159  16 16 16
0 0 0  32 32 32  0 0 0  0 0 0  0 0 0  0 0 0
0 0 0  0 0 0  0 0 0  0 0 0
0 0 0  0 0 0  0 0 0  23 34 8  91 131 31  117 169 40
117 169 40  117 169 40  117 169 40  91 131 31  3 4 1  0 0 0
0 0 0  0 0 0  81 78 17  117 169 40  117 169 40  117 169 40
117 169 40  115 166 40  45 51 13  0 0 0  0 0 0  0 0 0
0 0 0  0 0 0  0 0 0  0 0 0  0 0 0  0 0 0
0 0 0  0 0 0  0 0 0  0 0 0  11 11 11  54 54 54
121 121 121  121 121 121  0 0 0  159 159 159  121 121 121  80 80 80
0 0 0  32 32 32  0 0 0  0 0 0  0 0 0  0 0 0
0 0 0  0 0 0  0 0 0  0 0 0  0 0 0  0 0 0
0 0 0  0 0 0  0 0 0  23 34 8  91 131 31  117 169 40
117 169 40  117 169 40  117 169 40  91 131 31  3 4 1  0 0 0
0 0 0  0 0 0  81 78 17  117 169 40  117 169 40  117 169 40
117 169 40  115 166 40  45 51 13  0 0 0  0 0 0  0 0 0
0 0 0  0 0 0  0 0 0  0 0 0  0 0 0  0 0 0
0 0 0  0 0 0  0 0 0  0 0 0  11 11 11  54 54 54
121 121 121  121 121 121  0 0 0  159 159 159  121 121 121  80 80 80
0 0 0  32 32 32  0 0 0  0 0 0  0 0 0  0 0 0
0 0 0  0 0 0  0 0 0  0 0 0  0 0 0  0 0 0
0 0 0  0 0 0  0 0 0  23 34 8  91 131 31  117 169 40
117 169 40  117 169 40  117 169 40  91 131 31  3 4 1  0 0 0
0 0 0  0 0 0  81 78 17  117 169 40  117 169 40  117 169 40
117 169 40  115 166 40  45 51 13  0 0 0  0 0 0  0 0 0
0 0 0  0 0 0  0 0 0  0 0 0  0 0 0  0 0 0
0 0 0  0 0 0  0 0 0  0 0 0  11 11 11  54 54 54
121 121 121  121 121 121  0 0 0  159 159 159  121 121 121  80 80 80
0 0 0  32 32 32  0 0 0  0 0 0  0 0 0  0 0 0
0 0 0  0 0 0  0 0 0  0 0 0
0 0 0  0 0 0  0 0 0  0 0 0  23 34 8  85 123 29
115 166 40  116 168 40  115 166 40  48 70 16  0 0 0  0 0 0
0 0 0  0 0 0  23 34 8  91 131 31  115 166 40  115 166 40
91 131 31  37 35 14  2 1 1  0 0 0  0 0 0  0 0 0
0 0 0  0 0 0  0 0 0  0 0 0  0 0 0  0 0 0
0 0 0  0 0 0  0 0 0  0 0 0  11 11 11  36 36 36
80 80 80  146 125 69  137 98 53  150 128 71  80 80 80  80 80 80
0 0 0  32 32 32  0 0 0  0 0 0  0 0 0  0 0 0
0 0 0  0 0 0  0 0 0  0 0 0  0 0 0  0 0 0
0 0 0  0 0 0  0 0 0  0 0 0  23 34 8  85 123 29
115 166 40  116 168 40  115 166 40  48 70 16  0 0 0  0 0 0
0 0 0  0 0 0  23 34 8  91 131 31  115 166 40  115 166 40
91 131 31  37 35 14  2 1 1  0 0 0  0 0 0  0 0 0
0 0 0  0 0 0  0 0 0  0 0 0  0 0 0  0 0 0
0 0 0  0 0 0  0 0 0  0 0 0  11 11 11  36 36 36
80 80 80  146 125 69  137 98 53  150 128 71  80 80 80  80 80 80
0 0 0  32 32 32  0 0 0  0 0 0  0 0 0  0 0 0
0 0 0  0 0 0  0 0 0  0 0 0  0 0 0  0 0 0
0 0 0  0 0 0  0 0 0  0 0 0  23 34 8  85 123 29
115 166 40  116 168 40  115 166 40  48 70 16  0 0 0  0 0 0
0 0 0  0 0 0  23 34 8  91 131 31  115 166 40  115 166 40
91 131 31  37 35 14  2 1 1  0 0 0  0 0 0  0 0 0
0 0 0  0 0 0  0 0 0  0 0 0  0 0 0  0 0 0
0 0 0  0 0 0  0 0 0  0 0 0  11 11 11  36 36 36
80 80 80  146 125 69  137 98 53  150 128 71  80 80 80  80 80 80
0 0 0  32 32 32  0 0 0  0 0 0  0 0 0  0 0 0
0 0 0  0 0 0  0 0 0  0 0 0
0 0 0  0 0 0  0 0 0  0 0 0  0 0 0  4 4 1
37 35 14  45 51 13  13 18 4  1 1 0  41 4 14  94 8 33
94 8 33  44 4 15  2 0 1  10 14 3  37 35 14  45 51 13
6 8 2  1 1 0  0 0 0  0 0 0  0 0 0  0 0 0
0 0 0  0 0 0  0 0 0  0 0 0  0 0 0  0 0 0
0 0 0  0 0 0  0 0 0  0 0 0  11 11 11  21 21 21
160 135 31  213 170 43  215 175 45  210 165 40  215 175 45  68 56 24
0 0 0  24 24 24  8 8 8  0 0 0  0 0 0  0 0 0
0 0 0  0 0 0  0 0 0  0 0 0  0 0 0  0 0 0
0 0 0  0 0 0  0 0 0  0 0 0  0 0 0  4 4 1
37 35 14  45 51 13  13 18 4  1 1 0  41 4 14  94 8 33
94 8 33  44 4 15  2 0 1  10 14 3  37 35 14  45 51 13
6 8 2  1 1 0  0 0 0  0 0 0  0 0 0  0 0 0
0 0 0  0 0 0  0 0 0  0 0 0  0 0 0  0 0 0
0 0 0  0 0 0  0 0 0  0 0 0  11 11 11  21 21 21
160 135 31  213 170 43  215 175 45  210 165 40  215 175 45  68 56 24
0 0 0  24 24 24  8 8 8  0 0 0  0 0 0  0 0 0
0 0 0  0 0 0  0 0 0  0 0 0  0 0 0  0 0 0
0 0 0  0 0 0  0 0 0  0 0 0  0 0 0  4 4 1
37 35 14  45 51 13  13 18 4  1 1 0  41 4 14  94 8 33
94 8 33  44 4 15  2 0 1  10 14 3  37 35 14  45 51 13
6 8 2  1 1 0  0 0 0  0 0 0  0 0 0  0 0 0
0 0 0  0 0 0  0 0 0  0 0 0  0 0 0  0 0 0
0 0 0  0 0 0  0 0 0  0 0 0  11 11 11  21 21 21
160 135 31  213 170 43  215 175 45  210 165 40  215 175 45  68 56 24
0 0 0  24 24 24  8 8 8  0 0 0  0 0 0  0 0 0
0 0 0  0 0 0  0 0 0  0 0 0
0 0 0  0 0 0  0 0 0  0 0 0  13 1 4  101 9 35
163 15 57  171 16 60  38 3 13  101 9 35  186 17 65  188 17 66
188 17 66  187 17 66  118 11 41  61 6 21  164 15 58  143 13 50
71 9 27  4 0 1  0 0 0  0 0 0  0 0 0  0 0 0
0 0 0  0 0 0  0 0 0  0 0 0  0 0 0  0 0 0
0 0 0  0 0 0  0 0 0  0 0 0  11 11 11  54 54 54
205 166 43  213 170 43  210 165 40  210 165 40  179 117 19  88 64 24
32 32 32  16 16 16  28 28 28  0 0 0  0 0 0  0 0 0
0 0 0  0 0 0  0 0 0  0 0 0  0 0 0  0 0 0
0 0 0  0 0 0  0 0 0  0 0 0  13 1 4  101 9 35
163 15 57  171 16 60  38 3 13  101 9 35  186 17 65  188 17 66
188 17 66  187 17 66  118 11 41  61 6 21  164 15 58  143 13 50
71 9 27  4 0 1  0 0 0  0 0 0  0 0 0  0 0 0
0 0 0  0 0 0  0 0 0  0 0 0  0 0 0  0 0 0
0 0 0  0 0 0  0 0 0  0 0 0  11 11 11  54 54 54
205 166 43  213 170 43  210 165 40  210 165 40  179 117 19  88 64 24
32 32 32  16 16 16  28 28 28  0 0 0  0 0 0  0 0 0
0 0 0  0 0 0  0 0 0  0 0 0  0 0 0  0 0 0
0 0 0  0 0 0  0 0 0  0 0 0  13 1 4  101 9 35
163 15 57  171 16 60  38 3 13  101 9 35  186 17 65  188 17 66
188 17 66  187 17 66  118 11 41  61 6 21  164 15 58  143 13 50
71 9 27  4 0 1  0 0 0  0 0 0  0 0 0  0 0 0
0 0 0  0 0 0  0 0 0  0 0 0  0 0 0  0 0 0
0 0 0  0 0 0  0 0 0  0 0 0  11 11 11  54 54 54
205 166 43  213 170 43  210 165 40  210 165 40  179 117 19  88 64 24
32 32 32  16 16 16  28 28 28  0 0 0  0 0 0  0 0 0
0 0 0  0 0 0  0 0 0  0 0 0
0 0 0  0 0 0  0 0 0  7 2 2  132 12 46  188 17 66
182 17 64  83 8 29  14 1 5  163 15 57  188 17 66  188 17 66
188 17 66  188 17 66  180 16 63  38 3 13  120 11 42  187 17 66
186 17 65  94 8 33  2 0 1  0 0 0  0 0 0  0 0 0
0 0 0  0 0 0  0 0 0  0 0 0  0 0 0  0 0 0
0 0 0  0 0 0  0 0 0  0 0 0  11 11 11  36 36 36
146 125 69  179 117 19  179 117 19  179 117 19  151 168 125  121 121 121
32 32 32  54 54 54  32 32 32  0 0 0  0 0 0  0 0 0
0 0 0  0 0 0  0 0 0  0 0 0  0 0 0  0 0 0
0 0 0  0 0 0  0 0 0  7 2 2  132 12 46  188 17 66
182 17 64  83 8 29  14 1 5  163 15 57  188 17 66  188 17 66
188 17 66  188 17 66  180 16 63  38 3 13  120 11 42  187 17 66
186 17 65  94 8 33  2 0 1  0 0 0  0 0 0  0 0 0
0 0 0  0 0 0  0 0 0  0 0 0  0 0 0  0 0 0
0 0 0  0 0 0  0 0 0  0 0 0  11 11 11  36 36 36
146 125 69  179 117 19  179 117 19  179 117 19  151 168 125  121 121 121
32 32 32  54 54 54  32 32 32  0 0 0  0 0 0  0 0 0
0 0 0  0 0 0  0 0 0  0 0 0  0 0 0  0 0 0
0 0 0  0 0 0  0 0 0  7 2 2  132 12 46  188 17 66
182 17 64  83 8 29  14 1 5  163 15 57  188 17 66  188 17 66
188 17 66  188 17 66  180 16 63  38 3 13  120 11 42  187 17 66
186 17 65  94 8 33  2 0 1  0 0 0  0 0 0  0 0 0
0 0 0  0 0 0  0 0 0  0 0 0  0 0 0  0 0 0
0 0 0  0 0 0  0 0 0  0 0 0  11 11 11  36 36 36
146 125 69  179 117 19  179 117 19  179 117 19  151 168 125  121 121 121
32 32 32  54 54 54  32 32 32  0 0 0  0 0 0  0 0 0
0 0 0  0 0 0  0 0 0  0 0 0
0 0 0  0 0 0  0 0 0  53 5 18  185 17 65  180 16 63
75 7 26  2 0 1  0 0 0  53 5 18  143 13 50  179 16 63
182 17 64  163 15 57  88 8 30  4 0 1  8 1 3  109 10 38
187 17 66  174 16 61  27 2 9  0 0 0  0 0 0  0 0 0
0 0 0  0 0 0  0 0 0  0 0 0  0 0 0  0 0 0
0 0 0  0 0 0  0 0 0  0 0 0  27 27 27  44 44 44
210 210 210  151 168 125  151 168 125  200 200 200  245 245 245  249 249 249
36 36 36  0 0 0  8 8 8  24 24 24  0 0 0  0 0 0
0 0 0  0 0 0  0 0 0  0 0 0  0 0 0  0 0 0
0 0 0  0 0 0  0 0 0  53 5 18  185 17 65  180 16 63
75 7 26  2 0 1  0 0 0  53 5 18  143 13 50  179 16 63
182 17 64  163 15 57  88 8 30  4 0 1  8 1 3  109 10 38
187 17 66  174 16 61  27 2 9  0 0 0  0 0 0  0 0 0
0 0 0  0 0 0  0 0 0  0 0 0  0 0 0  0 0 0
0 0 0  0 0 0  0 0 0  0 0 0  27 27 27  44 44 44
210 210 210  151 168 125  151 168 125  200 200 200  245 245 245  249 249 249
36 36 36  0 0 0  8 8 8  24 24 24  0 0 0  0 0 0
0 0 0  0 0 0  0 0 0  0 0 0  0 0 0  0 0 0
0 0 0  0 0 0  0 0 0  53 5 18  185 17 65  180 16 63
75 7 26  2 0 1  0 0 0  53 5 18  143 13 50  179 16 63
182 17 64  163 15 57  88 8 30  4 0 1  8 1 3  109 10 38
187 17 66  174 16 61  27 2 9  0 0 0  0 0 0  0 0 0
0 0 0  0 0 0  0 0 0  0 0 0  0 0 0  0 0 0
0 0 0  0 0 0  0 0 0  0 0 0  27 27 27  44 44 44
210 210 210  151 168 125  151 168 125  200 200 200  245 245 245  249 249 249
36 36 36  0 0 0  8 8 8  24 24 24  0 0 0  0 0 0
0 0 0  0 0 0  0 0 0  0 0 0
0 0 0  0 0 0  0 0 0  88 8 30  154 14 54  41 4 14
15 1 5  83 8 29  124 11 43  101 9 35  24 3 8  8 1 3
11 1 4  28 3 10  124 11 43  157 14 55  124 11 43  44 4 15
75 7 26  171 16 60  60 5 21  0 0 0  0 0 0  0 0 0
0 0 0  0 0 0  0 0 0  0 0 0  0 0 0  0 0 0
0 0 0  0 0 0  0 0 0  16 16 16  24 24 24  159 159 159
255 255 255  231 229 227  223 223 223  255 255 255  255 255 255  255 255 255
121 121 121  0 0 0  0 0 0  20 20 20  11 11 11  0 0 0
0 0 0  0 0 0  0 0 0  0 0 0  0 0 0  0 0 0
0 0 0  0 0 0  0 0 0  88 8 30  154 14 54  41 4 14
15 1 5  83 8 29  124 11 43  101 9 35  24 3 8  8 1 3
11 1 4  28 3 10  124 11 43  157 14 55  124 11 43  44 4 15
75 7 26  171 16 60  60 5 21  0 0 0  0 0 0  0 0 0
0 0 0  0 0 0  0 0 0  0 0 0  0 0 0  0 0 0
0 0 0  0 0 0  0 0 0  16 16 16  24 24 24  159 159 159
255 255 255  231 229 227  223 223 223  255 255 255  255 255 255  255 255 255
121 121 121  0 0 0  0 0 0  20 20 20  11 11 11  0 0 0
0 0 0  0 0 0  0 0 0  0 0 0  0 0 0  0 0 0
0 0 0  0 0 0  0 0 0  88 8 30  154 14 54  41 4 14
15 1 5  83 8 29  124 11 43  101 9 35  24 3 8  8 1 3
11 1 4  28 3 10  124 11 43  157 14 55  124 11 43  44 4 15
75 7 26  171 16 60  60 5 21  0 0 0  0 0 0  0 0 0
0 0 0  0 0 0  0 0 0  0 0 0  0 0 0  0 0 0
0 0 0  0 0 0  0 0 0  16 16 16  24 24 24  159 159 159
255 255 255  231 229 227  223 223 223  255 255 255  255 255 255  255 255 255
121 121 121  0 0 0  0 0 0  20 20 20  11 11 11  0 0 0
0 0 0  0 0 0  0 0 0  0 0 0
0 0 0  0 0 0  0 0 0  19 2 6  12 1 4  21 2 7
150 14 52  188 17 66  188 17 66  188 17 66  154 14 54  13 1 4
7 1 3  150 14 52  188 17 66  188 17 66  188 17 66  176 16 62
53 5 18  24 3 8  21 2 7  0 0 0  0 0 0  0 0 0
0 0 0  0 0 0  0 0 0  0 0 0  0 0 0  0 0 0
0 0 0  0 0 0  4 4 4  28 28 28  32 32 32  215 215 215
255 255 255  245 245 245  252 252 252  255 255 255  249 249 249  244 244 244
192 192 192  11 11 11  0 0 0  0 0 0  22 22 22  11 11 11
0 0 0  0 0 0  0 0 0  0 0 0  0 0 0  0 0 0
0 0 0  0 0 0  0 0 0  19 2 6  12 1 4  21 2 7
150 14 52  188 17 66  188 17 66  188 17 66  154 14 54  13 1 4
7 1 3  150 14 52  188 17 66  188 17 66  188 17 66  176 16 62
53 5 18  24 3 8  21 2 7  0 0 0  0 0 0  0 0 0
0 0 0  0 0 0  0 0 0  0 0 0  0 0 0  0 0 0
0 0 0  0 0 0  4 4 4  28 28 28  32 32 32  215 215 215
255 255 255  245 245 245  252 252 252  255 255 255  249 249 249  244 244 244
192 192 192  11 11 11  0 0 0  0 0 0  22 22 22  11 11 11
0 0 0  0 0 0  0 0 0  0 0 0  0 0 0  0 0 0
0 0 0  0 0 0  0 0 0  19 2 6  12 1 4  21 2 7
150 14 52  188 17 66  188 17 66  188 17 66  154 14 54  13 1 4
7 1 3  150 14 52  188 17 66  188 17 66  188 17 66  176 16 62
53 5 18  24 3 8  21 2 7  0 0 0  0 0 0  0 0 0
0 0 0  0 0 0  0 0 0  0 0 0  0 0 0  0 0 0
0 0 0  0 0 0  4 4 4  28 28 28  32 32 32  215 215 215
255 255 255  245 245 245  252 252 252  255 255 255  249 249 249  244 244 244
192 192 192  11 11 11  0 0 0  0 0 0  22 22 22  11 11 11
0 0 0  0 0 0  0 0 0  0 0 0
0 0 0  1 0 0  61 6 21  88 8 30  2 0 1  118 11 41
188 17 66  188 17 66  188 17 66  188 17 66  189 17 66  61 5 21
38 3 13  188 17 66  188 17 66  188 17 66  188 17 66  188 17 66
157 14 55  12 1 4  113 10 40  61 6 21  1 0 0  0 0 0
0 0 0  0 0 0  0 0 0  0 0 0  0 0 0  0 0 0
0 0 0  0 0 0  32 32 32  0 0 0  80 80 80  214 214 214
255 255 255  223 223 223  249 249 249  255 255 255  245 245 245  210 210 210
192 192 192  64 64 64  24 24 24  11 11 11  4 4 4  29 29 29
0 0 0  0 0 0  0 0 0  0 0 0  0 0 0  0 0 0
0 0 0  1 0 0  61 6 21  88 8 30  2 0 1  118 11 41
188 17 66  188 17 66  188 17 66  188 17 66  189 17 66  61 5 21
38 3 13  188 17 66  188 17 66  188 17 66  188 17 66  188 17 66
157 14 55  12 1 4  113 10 40  61 6 21  1 0 0  0 0 0
0 0 0  0 0 0  0 0 0  0 0 0  0 0 0  0 0 0
0 0 0  0 0 0  32 32 32  0 0 0  80 80 80  214 214 214
255 255 255  223 223 223  249 249 249  255 255 255  245 245 245  210 210 210
192 192 192  64 64 64  24 24 24  11 11 11  4 4 4  29 29 29
0 0 0  0 0 0  0 0 0  0 0 0  0 0 0  0 0 0
0 0 0  1 0 0  61 6 21  88 8 30  2 0 1  118 11 41
188 17 66  188 17 66  188 17 66  188 17 66  189 17 66  61 5 21
38 3 13  188 17 66  188 17 66  188 17 66  188 17 66  188 17 66
157 14 55  12 1 4  113 10 40  61 6 21  1 0 0  0 0 0
0 0 0  0 0 0  0 0 0  0 0 0  0 0 0  0 0 0
0 0 0  0 0 0  32 32 32  0 0 0  80 80 80  214 214 214
255 255 255  223 223 223  249 249 249  255 255 255  245 245 245  210 210 210
192 192 192  64 64 64  24 24 24  11 11 11  4 4 4  29 29 29
0 0 0  0 0 0  0 0 0  0 0 0
0 0 0  53 5 18  183 16 64  150 14 52  19 2 6  176 16 62
188 17 66  188 17 66  188 17 66  188 17 66  189 17 66  75 7 26
41 4 14  188 17 66  188 17 66  188 17 66  188 17 66  188 17 66
188 17 66  53 5 18  168 15 59  179 16 63  35 3 13  0 0 0
0 0 0  0 0 0  0 0 0  0 0 0  0 0 0  0 0 0
0 0 0  7 7 7  32 32 32  29 29 29  192 192 192  255 255 255
255 255 255  255 255 255  255 255 255  255 255 255  255 255 255  255 255 255
249 249 249  192 192 192  27 27 27  44 44 44  7 7 7  32 32 32
0 0 0  0 0 0  0 0 0  0 0 0  0 0 0  0 0 0
0 0 0  53 5 18  183 16 64  150 14 52  19 2 6  176 16 62
188 17 66  188 17 66  188 17 66  188 17 66  189 17 66  75 7 26
41 4 14  188 17 66  188 17 66  188 17 66  188 17 66  188 17 66
188 17 66  53 5 18  168 15 59  179 16 63  35 3 13  0 0 0
0 0 0  0 0 0  0 0 0  0 0 0  0 0 0  0 0 0
0 0 0  7 7 7  32 32 32  29 29 29  192 192 192  255 255 255
255 255 255  255 255 255  255 255 255  255 255 255  255 255 255  255 255 255
249 249 249  192 192 192  27 27 27  44 44 44  7 7 7  32 32 32
0 0 0  0 0 0  0 0 0  0 0 0  0 0 0  0 0 0
0 0 0  53 5 18  183 16 64  150 14 52  19 2 6  176 16 62
188 17 66  188 17 66  188 17 66  188 17 66  189 17 66  75 7 26
41 4 14  188 17 66  188 17 66  188 17 66  188 17 66  188 17 66
188 17 66  53 5 18  168 15 59  179 16 63  35 3 13  0 0 0
0 0 0  0 0 0  0 0 0  0 0 0  0 0 0  0 0 0
0 0 0  7 7 7  32 32 32  29 29 29  192 192 192  255 255 255
255 255 255  255 255 255  255 255 255  255 255 255  255 255 255  255 255 255
249 249 249  192 192 192  27 27 27  44 44 44  7 7 7  32 32 32
0 0 0  0 0 0  0 0 0  0 0 0
0 0 0  120 11 42  188 17 66  150 14 52  23 2 8  182 17 64
188 17 66  188 17 66  188 17 66  188 17 66  185 17 65  38 3 13
12 1 4  167 15 59  188 17 66  188 17 66  188 17 66  188 17 66
188 17 66  53 5 18  166 15 58  188 17 66  99 9 34  0 0 0
0 0 0  0 0 0  0 0 0  0 0 0  0 0 0  0 0 0
0 0 0  22 22 22  44 44 44  80 80 80  249 249 249  255 255 255
255 255 255  255 255 255  255 255 255  255 255 255  255 255 255  255 255 255
255 255 255  249 249 249  80 80 80  27 27 27  22 22 22  4 4 4
28 28 28  0 0 0  0 0 0  0 0 0  0 0 0  0 0 0
0 0 0  120 11 42  188 17 66  150 14 52  23 2 8  182 17 64
188 17 66  188 17 66  188 17 66  188 17 66  185 17 65  38 3 13
12 1 4  167 15 59  188 17 66  188 17 66  188 17 66  188 17 66
188 17 66  53 5 18  166 15 58  188 17 66  99 9 34  0 0 0
0 0 0  0 0 0  0 0 0  0 0 0  0 0 0  0 0 0
0 0 0  22 22 22  44 44 44  80 80 80  249 249 249  255 255 255
255 255 255  255 255 255  255 255 255  255 255 255  255 255 255  255 255 255
255 255 255  249 249 249  80 80 80  27 27 27  22 22 22  4 4 4
28 28 28  0 0 0  0 0 0  0 0 0  0 0 0  0 0 0
0 0 0  120 11 42  188 17 66  150 14 52  23 2 8  182 17 64
188 17 66  188 17 66  188 17 66  188 17 66  185 17 65  38 3 13
12 1 4  167 15 59  188 17 66  188 17 66  188 17 66  188 17 66
188 17 66  53 5 18  166 15 58  188 17 66  99 9 34  0 0 0
0 0 0  0 0 0  0 0 0  0 0 0  0 0 0  0 0 0
0 0 0  22 22 22  44 44 44  80 80 80  249 249 249  255 255 255
255 255 255  255 255 255  255 255 255  255 255 255  255 255 255  255 255 255
255 255 255  249 249 249  80 80 80  27 27 27  22 22 22  4 4 4
28 28 28  0 0 0  0 0 0  0 0 0
1 0 0  143 13 50  188 17 66  132 12 46  6 0 2  152 14 53
188 17 66  188 17 66  188 17 66  188 17 66  124 11 43  3 0 1
0 0 0  75 7 26  185 17 65  188 17 66  188 17 66  188 17 66
163 15 57  15 1 5  150 14 52  188 17 66  114 10 40  0 0 0
0 0 0  0 0 0  0 0 0  0 0 0  0 0 0  0 0 0
0 0 0  36 36 36  28 28 28  192 192 192  255 255 255  255 255 255
255 255 255  255 255 255  255 255 255  255 255 255  255 255 255  255 255 255
255 255 255  255 255 255  121 121 121  0 0 0  32 32 32  0 0 0
32 32 32  0 0 0  0 0 0  0 0 0  0 0 0  0 0 0
1 0 0  143 13 50  188 17 66  132 12 46  6 0 2  152 14 53
188 17 66  188 17 66  188 17 66  188 17 66  124 11 43  3 0 1
0 0 0  75 7 26  185 17 65  188 17 66  188 17 66  188 17 66
163 15 57  15 1 5  150 14 52  188 17 66  114 10 40  0 0 0
0 0 0  0 0 0  0 0 0  0 0 0  0 0 0  0 0 0
0 0 0  36 36 36  28 28 28  192 192 192  255 255 255  255 255 255
255 255 255  255 255 255  255 255 255  255 255 255  255 255 255  255 255 255
255 255 255  255 255 255  121 121 121  0 0 0  32 32 32  0 0 0
32 32 32  0 0 0  0 0 0  0 0 0  0 0 0  0 0 0
1 0 0  143 13 50  188 17 66  132 12 46  6 0 2  152 14 53
188 17 66  188 17 66  188 17 66  188 17 66  124 11 43  3 0 1
0 0 0  75 7 26  185 17 65  188 17 66  188 17 66  188 17 66
163 15 57  15 1 5  150 14 52  188 17 66  114 10 40  0 0 0
0 0 0  0 0 0  0 0 0  0 0 0  0 0 0  0 0 0
0 0 0  36 36 36  28 28 28  192 192 192  255 255 255  255 255 255
255 255 255  255 255 255  255 255 255  255 255 255  255 255 255  255 255 255
255 255 255  255 255 255  121 121 121  0 0 0  32 32 32  0 0 0
32 32 32  0 0 0  0 0 0  0 0 0
0 0 0  109 10 38  189 17 66  88 8 30  0 0 0  41 4 14
157 14 55  185 17 65  174 16 61  110 10 39  34 3 12  71 9 27
77 7 27  41 4 14  61 6 21  150 14 52  171 16 60  143 13 50
38 3 13  0 0 0  109 10 38  189 17 66  77 7 27  0 0 0
0 0 0  0 0 0  0 0 0  0 0 0  0 0 0  0 0 0
28 28 28  16 16 16  29 29 29  255 255 255  255 255 255  255 255 255
233 233 233  244 244 244  255 255 255  255 255 255  255 255 255  255 255 255
255 255 255  255 255 255  159 159 159  0 0 0  32 32 32  0 0 0
32 32 32  0 0 0  0 0 0  0 0 0  0 0 0  0 0 0
0 0 0  109 10 38  189 17 66  88 8 30  0 0 0  41 4 14
157 14 55  185 17 65  174 16 61  110 10 39  34 3 12  71 9 27
77 7 27  41 4 14  61 6 21  150 14 52  171 16 60  143 13 50
38 3 13  0 0 0  109 10 38  189 17 66  77 7 27  0 0 0
0 0 0  0 0 0  0 0 0  0 0 0  0 0 0  0 0 0
28 28 28  16 16 16  29 29 29  255 255 255  255 255 255  255 255 255
233 233 233  244 244 244  255 255 255  255 255 255  255 255 255  255 255 255
255 255 255  255 255 255  159 159 159  0 0 0  32 32 32  0 0 0
32 32 32  0 0 0  0 0 0  0 0 0  0 0 0  0 0 0
0 0 0  109 10 38  189 17 66  88 8 30  0 0 0  41 4 14
157 14 55  185 17 65  174 16 61  110 10 39  34 3 12  71 9 27
77 7 27  41 4 14  61 6 21  150 14 52  171 16 60  143 13 50
38 3 13  0 0 0  109 10 38  189 17 66  77 7 27  0 0 0
0 0 0  0 0 0  0 0 0  0 0 0  0 0 0  0 0 0
28 28 28  16 16 16  29 29 29  255 255 255  255 255 255  255 255 255
233 233 233  244 244 244  255 255 255  255 255 255  255 255 255  255 255 255
255 255 255  255 255 255  159 159 159  0 0 0  32 32 32  0 0 0
32 32 32  0 0 0  0 0 0  0 0 0
0 0 0  32 3 11  152 14 53  26 3 9  3 0 1  0 0 0
12 1 4  32 3 11  21 2 7  61 6 21  171 16 60  187 17 66
188 17 66  182 17 64  109 10 38  11 1 4  15 1 5  6 1 2
8 1 3  44 4 15  53 5 18  138 13 48  15 1 5  0 0 0
0 0 0  0 0 0  0 0 0  0 0 0  0 0 0  0 0 0
32 32 32  4 4 4  54 54 54  255 255 255  255 255 255  255 255 255
233 233 233  244 244 244  255 255 255  255 255 255  255 255 255  255 255 255
255 255 255  255 255 255  159 159 159  11 11 11  36 36 36  0 0 0
32 32 32  0 0 0  0 0 0  0 0 0  0 0 0  0 0 0
0 0 0  32 3 11  152 14 53  26 3 9  3 0 1  0 0 0
12 1 4  32 3 11  21 2 7  61 6 21  171 16 60  187 17 66
188 17 66  182 17 64  109 10 38  11 1 4  15 1 5  6 1 2
8 1 3  44 4 15  53 5 18  138 13 48  15 1 5  0 0 0
0 0 0  0 0 0  0 0 0  0 0 0  0 0 0  0 0 0
32 32 32  4 4 4  54 54 54  255 255 255  255 255 255  255 255 255
233 233 233  244 244 244  255 255 255  255 255 255  255 255 255  255 255 255
255 255 255  255 255 255  159 159 159  11 11 11  36 36 36  0 0 0
32 32 32  0 0 0  0 0 0  0 0 0  0 0 0  0 0 0
0 0 0  32 3 11  152 14 53  26 3 9  3 0 1  0 0 0
12 1 4  32 3 11  21 2 7  61 6 21  171 16 60  187 17 66
188 17 66  182 17 64  109 10 38  11 1 4  15 1 5  6 1 2
8 1 3  44 4 15  53 5 18  138 13 48  15 1 5  0 0 0
0 0 0  0 0 0  0 0 0  0 0 0  0 0 0  0 0 0
32 32 32  4 4 4  54 54 54  255 255 255  255 255 255  255 255 255
233 233 233  244 244 244  255 255 255  255 255 255  255 255 255  255 255 255
255 255 255  255 255 255  159 159 159  11 11 11  36 36 36  0 0 0
32 32 32  0 0 0  0 0 0  0 0 0
0 0 0  0 0 0  8 1 3  90 8 31  138 13 48  77 7 27
5 0 2  0 0 0  20 2 7  168 15 59  188 17 66  188 17 66
188 17 66  188 17 66  185 17 65  60 5 21  0 0 0  23 2 8
138 13 48  187 17 66  143 13 50  5 1 2  0 0 0  0 0 0
0 0 0  0 0 0  0 0 0  0 0 0  0 0 0  0 0 0
36 28 20  135 114 30  68 56 24  159 159 159  255 255 255  255 255 255
233 233 233  244 244 244  255 255 255  255 255 255  255 255 255  255 255 255
255 255 255  248 247 240  151 168 125  21 21 21  22 22 22  44 44 44
32 32 32  0 0 0  0 0 0  0 0 0  0 0 0  0 0 0
0 0 0  0 0 0  8 1 3  90 8 31  138 13 48  77 7 27
5 0 2  0 0 0  20 2 7  168 15 59  188 17 66  188 17 66
188 17 66  188 17 66  185 17 65  60 5 21  0 0 0  23 2 8
138 13 48  187 17 66  143 13 50  5 1 2  0 0 0  0 0 0
0 0 0  0 0 0  0 0 0  0 0 0  0 0 0  0 0 0
36 28 20  135 114 30  68 56 24  159 159 159  255 255 255  255 255 255
233 233 233  244 244 244  255 255 255  255 255 255  255 255 255  255 255 255
255 255 255  248 247 240  151 168 125  21 21 21  22 22 22  44 44 44
32 32 32  0 0 0  0 0 0  0 0 0  0 0 0  0 0 0
0 0 0  0 0 0  8 1 3  90 8 31  138 13 48  77 7 27
5 0 2  0 0 0  20 2 7  168 15 59  188 17 66  188 17 66
188 17 66  188 17 66  185 17 65  60 5 21  0 0 0  23 2 8
138 13 48  187 17 66  143 13 50  5 1 2  0 0 0  0 0 0
0 0 0  0 0 0  0 0 0  0 0 0  0 0 0  0 0 0
36 28 20  135 114 30  68 56 24  159 159 159  255 255 255  255 255 255
233 233 233  244 244 244  255 255 255  255 255 255  255 255 255  255 255 255
255 255 255  248 247 240  151 168 125  21 21 21  22 22 22  44 44 44
32 32 32  0 0 0  0 0 0  0 0 0
0 0 0  0 0 0  5 1 2  168 15 59  188 17 66  188 17 66
124 11 43  10 1 3  53 5 18  186 17 65  188 17 66  188 17 66
188 17 66  188 17 66  188 17 66  101 9 35  20 2 7  155 14 54
188 17 66  188 17 66  177 16 62  14 1 5  0 0 0  0 0 0
0 0 0  0 0 0  0 0 0  0 0 0  50 36 8  50 36 8
160 135 31  213 170 43  210 165 40  47 46 14  159 159 159  255 255 255
255 255 255  255 255 255  255 255 255  255 255 255  255 255 255  255 255 255
255 255 255  215 175 45  124 104 29  0 0 0  0 0 0  50 36 8
122 91 16  0 0 0  0 0 0  0 0 0  0 0 0  0 0 0
0 0 0  0 0 0  5 1 2  168 15 59  188 17 66  188 17 66
124 11 43  10 1 3  53 5 18  186 17 65  188 17 66  188 17 66
188 17 66  188 17 66  188 17 66  101 9 35  20 2 7  155 14 54
188 17 66  188 17 66  177 16 62  14 1 5  0 0 0  0 0 0
0 0 0  0 0 0  0 0 0  0 0 0  50 36 8  50 36 8
160 135 31  213 170 43  210 165 40  47 46 14  159 159 159  255 255 255
255 255 255  255 255 255  255 255 255  255 255 255  255 255 255  255 255 255
255 255 255  215 175 45  124 104 29  0 0 0  0 0 0  50 36 8
122 91 16  0 0 0  0 0 0  0 0 0  0 0 0  0 0 0
0 0 0  0 0 0  5 1 2  168 15 59  188 17 66  188 17 66
124 11 43  10 1 3  53 5 18  186 17 65  188 17 66  188 17 66
188 17 66  188 17 66  188 17 66  101 9 35  20 2 7  155 14 54
188 17 66  188 17 66  177 16 62  14 1 5  0 0 0  0 0 0
0 0 0  0 0 0  0 0 0  0 0 0  50 36 8  50 36 8
160 135 31  213 170 43  210 165 40  47 46 14  159 159 159  255 255 255
255 255 255  255 255 255  255 255 255  255 255 255  255 255 255  255 255 255
255 255 255  215 175 45  124 104 29  0 0 0  0 0 0  50 36 8
122 91 16  0 0 0  0 0 0  0 0 0
0 0 0  0 0 0  3 0 1  163 15 57  188 17 66  188 17 66
187 17 66  94 8 33  34 3 12  179 16 63  188 17 66  188 17 66
188 17 66  188 17 66  188 17 66  83 8 29  110 10 39  188 17 66
188 17 66  188 17 66  176 16 62  13 1 4  0 0 0  0 0 0
0 0 0  0 0 0  0 0 0  50 36 8  209 166 42  213 170 43
213 170 43  213 170 43  213 170 43  172 160 40  28 23 13  159 159 159
255 255 255  255 255 255  255 255 255  255 255 255  255 255 255  255 255 255
223 223 223  215 175 45  205 166 43  103 80 34  102 85 34  172 160 40
160 135 31  4 4 1  0 0 0  0 0 0  0 0 0  0 0 0
0 0 0  0 0 0  3 0 1  163 15 57  188 17 66  188 17 66
187 17 66  94 8 33  34 3 12  179 16 63  188 17 66  188 17 66
188 17 66  188 17 66  188 17 66  83 8 29  110 10 39  188 17 66
188 17 66  188 17 66  176 16 62  13 1 4  0 0 0  0 0 0
0 0 0  0 0 0  0 0 0  50 36 8  209 166 42  213 170 43
213 170 43  213 170 43  213 170 43  172 160 40  28 23 13  159 159 159
255 255 255  255 255 255  255 255 255  255 255 255  255 255 255  255 255 255
223 223 223  215 175 45  205 166 43  103 80 34  102 85 34  172 160 40
160 135 31  4 4 1  0 0 0  0 0 0  0 0 0  0 0 0
0 0 0  0 0 0  3 0 1  163 15 57  188 17 66  188 17 66
187 17 66  94 8 33  34 3 12  179 16 63  188 17 66  188 17 66
188 17 66  188 17 66  188 17 66  83 8 29  110 10 39  188 17 66
188 17 66  188 17 66  176 16 62  13 1 4  0 0 0  0 0 0
0 0 0  0 0 0  0 0 0  50 36 8  209 166 42  213 170 43
213 170 43  213 170 43  213 170 43  172 160 40  28 23 13  159 159 159
255 255 255  255 255 255  255 255 255  255 255 255  255 255 255  255 255 255
223 223 223  215 175 45  205 166 43  103 80 34  102 85 34  172 160 40
160 135 31  4 4 1  0 0 0  0 0 0
0 0 0  0 0 0  0 0 0  109 10 38  188 17 66  188 17 66
188 17 66  168 15 59  8 1 3  113 10 40  188 17 66  188 17 66
188 17 66  188 17 66  154 14 54  26 3 9  176 16 62  188 17 66
188 17 66  188 17 66  138 13 48  1 0 0  0 0 0  0 0 0
0 0 0  0 0 0  0 0 0  50 36 8  213 170 43  215 175 45
210 165 40  213 170 43  215 175 45  210 165 40  120 82 9  8 8 8
192 192 192  255 255 255  255 255 255  255 255 255  255 255 255  255 255 255
200 200 200  205 166 43  210 165 40  215 175 45  213 170 43  210 165 40
215 175 45  124 104 29  0 0 0  0 0 0  0 0 0  0 0 0
0 0 0  0 0 0  0 0 0  109 10 38  188 17 66  188 17 66
188 17 66  168 15 59  8 1 3  113 10 40  188 17 66  188 17 66
188 17 66  188 17 66  154 14 54  26 3 9  176 16 62  188 17 66
188 17 66  188 17 66  138 13 48  1 0 0  0 0 0  0 0 0
0 0 0  0 0 0  0 0 0  50 36 8  213 170 43  215 175 45
210 165 40  213 170 43  215 175 45  210 165 40  120 82 9  8 8 8
192 192 192  255 255 255  255 255 255  255 255 255  255 255 255  255 255 255
200 200 200  205 166 43  210 165 40  215 175 45  213 170 43  210 165 40
215 175 45  124 104 29  0 0 0  0 0 0  0 0 0  0 0 0
0 0 0  0 0 0  0 0 0  109 10 38  188 17 66  188 17 66
188 17 66  168 15 59  8 1 3  113 10 40  188 17 66  188 17 66
188 17 66  188 17 66  154 14 54  26 3 9  176 16 62  188 17 66
188 17 66  188 17 66  138 13 48  1 0 0  0 0 0  0 0 0
0 0 0  0 0 0  0 0 0  50 36 8  213 170 43  215 175 45
210 165 40  213 170 43  215 175 45  210 165 40  120 82 9  8 8 8
192 192 192  255 255 255  255 255 255  255 255 255  255 255 255  255 255 255
200 200 200  205 166 43  210 165 40  215 175 45  213 170 43  210 165 40
215 175 45  124 104 29  0 0 0  0 0 0
0 0 0  0 0 0  0 0 0  22 2 8  154 14 54  188 17 66
188 17 66  186 17 65  20 2 7  5 0 2  77 7 26  134 12 47
143 13 50  101 9 35  18 1 6  32 3 11  188 17 66  188 17 66
188 17 66  167 15 59  35 3 12  0 0 0  0 0 0  0 0 0
0 0 0  0 0 0  0 0 0  47 46 14  213 170 43  210 165 40
215 175 45  213 170 43  210 165 40  215 175 45  205 166 43  108 108 68
233 233 233  255 255 255  255 255 255  255 255 255  255 255 255  249 249 249
121 121 121  172 160 40  215 175 45  210 165 40  213 170 43  215 175 45
210 165 40  213 170 43  160 135 31  0 0 0  0 0 0  0 0 0
0 0 0  0 0 0  0 0 0  22 2 8  154 14 54  188 17 66
188 17 66  186 17 65  20 2 7  5 0 2  77 7 26  134 12 47
143 13 50  101 9 35  18 1 6  32 3 11  188 17 66  188 17 66
188 17 66  167 15 59  35 3 12  0 0 0  0 0 0  0 0 0
0 0 0  0 0 0  0 0 0  47 46 14  213 170 43  210 165 40
215 175 45  213 170 43  210 165 40  215 175 45  205 166 43  108 108 68
233 233 233  255 255 255  255 255 255  255 255 255  255 255 255  249 249 249
121 121 121  172 160 40  215 175 45  210 165 40  213 170 43  215 175 45
210 165 40  213 170 43  160 135 31  0 0 0  0 0 0  0 0 0
0 0 0  0 0 0  0 0 0  22 2 8  154 14 54  188 17 66
188 17 66  186 17 65  20 2 7  5 0 2  77 7 26  134 12 47
143 13 50  101 9 35  18 1 6  32 3 11  188 17 66  188 17 66
188 17 66  167 15 59  35 3 12  0 0 0  0 0 0  0 0 0
0 0 0  0 0 0  0 0 0  47 46 14  213 170 43  210 165 40
215 175 45  213 170 43  210 165 40  215 175 45  205 166 43  108 108 68
233 233 233  255 255 255  255 255 255  255 255 255  255 255 255  249 249 249
121 121 121  172 160 40  215 175 45  210 165 40  213 170 43  215 175 45
210 165 40  213 170 43  160 135 31  0 0 0
0 0 0  0 0 0  0 0 0  0 0 0  22 2 8  114 10 40
157 14 55  134 12 47  5 0 2  2 0 1  18 1 6  38 3 13
44 4 15  28 3 10  7 1 3  11 1 4  150 14 52  169 15 60
134 12 47  34 3 12  0 0 0  0 0 0  0 0 0  0 0 0
0 0 0  0 0 0  0 0 0  68 56 24  213 170 43  213 170 43
213 170 43  213 170 43  213 170 43  213 170 43  213 170 43  213 170 43
231 229 227  255 255 255  255 255 255  252 252 252  214 214 214  121 121 121
7 7 7  179 117 19  213 170 43  213 170 43  213 170 43  213 170 43
213 170 43  210 169 43  102 85 34  0 0 0  0 0 0  0 0 0
0 0 0  0 0 0  0 0 0  0 0 0  22 2 8  114 10 40
157 14 55  134 12 47  5 0 2  2 0 1  18 1 6  38 3 13
44 4 15  28 3 10  7 1 3  11 1 4  150 14 52  169 15 60
134 12 47  34 3 12  0 0 0  0 0 0  0 0 0  0 0 0
0 0 0  0 0 0  0 0 0  68 56 24  213 170 43  213 170 43
213 170 43  213 170 43  213 170 43  213 170 43  213 170 43  213 170 43
231 229 227  255 255 255  255 255 255  252 252 252  214 214 214  121 121 121
7 7 7  179 117 19  213 170 43  213 170 43  213 170 43  213 170 43
213 170 43  210 169 43  102 85 34  0 0 0  0 0 0  0 0 0
0 0 0  0 0 0  0 0 0  0 0 0  22 2 8  114 10 40
157 14 55  134 12 47  5 0 2  2 0 1  18 1 6  38 3 13
44 4 15  28 3 10  7 1 3  11 1 4  150 14 52  169 15 60
134 12 47  34 3 12  0 0 0  0 0 0  0 0 0  0 0 0
0 0 0  0 0 0  0 0 0  68 56 24  213 170 43  213 170 43
213 170 43  213 170 43  213 170 43  213 170 43  213 170 43  213 170 43
231 229 227  255 255 255  255 255 255  252 252 252  214 214 214  121 121 121
7 7 7  179 117 19  213 170 43  213 170 43  213 170 43  213 170 43
213 170 43  210 169 43  102 85 34  0 0 0
0 0 0  0 0 0  0 0 0  0 0 0  0 0 0  0 0 0
6 1 2  3 0 1  18 1 6  120 11 42  171 16 60  185 17 65
187 17 66  180 16 63  150 14 52  36 5 14  6 1 2  14 1 5
2 0 1  0 0 0  0 0 0  0 0 0  0 0 0  0 0 0
0 0 0  0 0 0  0 0 0  135 114 30  213 170 43  215 175 45
210 165 40  213 170 43  215 175 45  210 165 40  213 170 43  179 117 19
88 64 24  64 64 64  64 64 64  64 64 64  21 21 21  0 0 0
21 21 21  179 117 19  210 165 40  215 175 45  213 170 43  210 165 40
122 91 16  47 46 14  0 0 0  0 0 0  0 0 0  0 0 0
0 0 0  0 0 0  0 0 0  0 0 0  0 0 0  0 0 0
6 1 2  3 0 1  18 1 6  120 11 42  171 16 60  185 17 65
187 17 66  180 16 63  150 14 52  36 5 14  6 1 2  14 1 5
2 0 1  0 0 0  0 0 0  0 0 0  0 0 0  0 0 0
0 0 0  0 0 0  0 0 0  135 114 30  213 170 43  215 175 45
210 165 40  213 170 43  215 175 45  210 165 40  213 170 43  179 117 19
88 64 24  64 64 64  64 64 64  64 64 64  21 21 21  0 0 0
21 21 21  179 117 19  210 165 40  215 175 45  213 170 43  210 165 40
122 91 16  47 46 14  0 0 0  0 0 0  0 0 0  0 0 0
0 0 0  0 0 0  0 0 0  0 0 0  0 0 0  0 0 0
6 1 2  3 0 1  18 1 6  120 11 42  171 16 60  185 17 65
187 17 66  180 16 63  150 14 52  36 5 14  6 1 2  14 1 5
2 0 1  0 0 0  0 0 0  0 0 0  0 0 0  0 0 0
0 0 0  0 0 0  0 0 0  135 114 30  213 170 43  215 175 45
210 165 40  213 170 43  215 175 45  210 165 40  213 170 43  179 117 19
88 64 24  64 64 64  64 64 64  64 64 64  21 21 21  0 0 0
21 21 21  179 117 19  210 165 40  215 175 45  213 170 43  210 165 40
122 91 16  47 46 14  0 0 0  0 0 0
0 0 0  0 0 0  0 0 0  0 0 0  0 0 0  0 0 0
0 0 0  0 0 0  26 3 9  163 15 57  188 17 66  188 17 66
188 17 66  188 17 66  166 15 58  32 3 11  0 0 0  0 0 0
0 0 0  0 0 0  0 0 0  0 0 0  0 0 0  0 0 0
0 0 0  0 0 0  0 0 0  28 23 13  83 62 7  120 82 9
155 125 23  179 117 19  210 165 40  210 165 40  213 170 43  179 117 19
68 56 24  27 27 27  32 32 32  32 32 32  32 32 32  28 28 28
29 29 29  179 117 19  210 165 40  210 165 40  179 117 19  83 62 7
0 0 0  0 0 0  0 0 0  0 0 0  0 0 0  0 0 0
0 0 0  0 0 0  0 0 0  0 0 0  0 0 0  0 0 0
0 0 0  0 0 0  26 3 9  163 15 57  188 17 66  188 17 66
188 17 66  188 17 66  166 15 58  32 3 11  0 0 0  0 0 0
0 0 0  0 0 0  0 0 0  0 0 0  0 0 0  0 0 0
0 0 0  0 0 0  0 0 0  28 23 13  83 62 7  120 82 9
155 125 23  179 117 19  210 165 40  210 165 40  213 170 43  179 117 19
68 56 24  27 27 27  32 32 32  32 32 32  32 32 32  28 28 28
29 29 29  179 117 19  210 165 40  210 165 40  179 117 19  83 62 7
0 0 0  0 0 0  0 0 0  0 0 0  0 0 0  0 0 0
0 0 0  0 0 0  0 0 0  0 0 0  0 0 0  0 0 0
0 0 0  0 0 0  26 3 9  163 15 57  188 17 66  188 17 66
188 17 66  188 17 66  166 15 58  32 3 11  0 0 0  0 0 0
0 0 0  0 0 0  0 0 0  0 0 0  0 0 0  0 0 0
0 0 0  0 0 0  0 0 0  28 23 13  83 62 7  120 82 9
155 125 23  179 117 19  210 165 40  210 165 40  213 170 43  179 117 19
68 56 24  27 27 27  32 32 32  32 32 32  32 32 32  28 28 28
29 29 29  179 117 19  210 165 40  210 165 40  179 117 19  83 62 7
0 0 0  0 0 0  0 0 0  0 0 0
0 0 0  0 0 0  0 0 0  0 0 0  0 0 0  0 0 0
0 0 0  0 0 0  0 0 0  28 3 10  118 11 41  164 15 57
164 15 57  120 11 42  28 3 10  0 0 0  0 0 0  0 0 0
0 0 0  0 0 0  0 0 0  0 0 0  0 0 0  0 0 0
0 0 0  0 0 0  0 0 0  0 0 0  0 0 0  0 0 0
4 4 1  21 5 7  50 36 8  120 82 9  122 91 16  120 82 9
11 11 11  7 7 7  0 0 0  0 0 0  0 0 0  4 4 4
11 11 11  83 62 7  120 82 9  120 82 9  50 36 8  0 0 0
0 0 0  0 0 0  0 0 0  0 0 0  0 0 0  0 0 0
0 0 0  0 0 0  0 0 0  0 0 0  0 0 0  0 0 0
0 0 0  0 0 0  0 0 0  28 3 10  118 11 41  164 15 57
164 15 57  120 11 42  28 3 10  0 0 0  0 0 0  0 0 0
0 0 0  0 0 0  0 0 0  0 0 0  0 0 0  0 0 0
0 0 0  0 0 0  0 0 0  0 0 0  0 0 0  0 0 0
4 4 1  21 5 7  50 36 8  120 82 9  122 91 16  120 82 9
11 11 11  7 7 7  0 0 0  0 0 0  0 0 0  4 4 4
11 11 11  83 62 7  120 82 9  120 82 9  50 36 8  0 0 0
0 0 0  0 0 0  0 0 0  0 0 0  0 0 0  0 0 0
0 0 0  0 0 0  0 0 0  0 0 0  0 0 0  0 0 0
0 0 0  0 0 0  0 0 0  28 3 10  118 11 41  164 15 57
164 15 57  120 11 42  28 3 10  0 0 0  0 0 0  0 0 0
0 0 0  0 0 0  0 0 0  0 0 0  0 0 0  0 0 0
0 0 0  0 0 0  0 0 0  0 0 0  0 0 0  0 0 0
4 4 1  21 5 7  50 36 8  120 82 9  122 91 16  120 82 9
11 11 11  7 7 7  0 0 0  0 0 0  0 0 0  4 4 4
11 11 11  83 62 7  120 82 9  120 82 9  50 36 8  0 0 0
0 0 0  0 0 0  0 0 0  0 0 0
0 0 0  0 0 0  0 0 0  0 0 0  0 0 0  0 0 0
0 0 0  0 0 0  0 0 0  0 0 0  0 0 0  9 1 3
9 1 3  1 0 0  0 0 0  0 0 0  0 0 0  0 0 0
0 0 0  0 0 0  0 0 0  0 0 0  0 0 0  0 0 0
0 0 0  0 0 0  0 0 0  0 0 0  0 0 0  0 0 0
0 0 0  0 0 0  0 0 0  0 0 0  0 0 0  0 0 0
0 0 0  0 0 0  0 0 0  0 0 0  0 0 0  0 0 0
0 0 0  0 0 0  0 0 0  0 0 0  0 0 0  0 0 0
0 0 0  0 0 0  0 0 0  0 0 0  0 0 0  0 0 0
0 0 0  0 0 0  0 0 0  0 0 0  0 0 0  0 0 0
0 0 0  0 0 0  0 0 0  0 0 0  0 0 0  9 1 3
9 1 3  1 0 0  0 0 0  0 0 0  0 0 0  0 0 0
0 0 0  0 0 0  0 0 0  0 0 0  0 0 0  0 0 0
0 0 0  0 0 0  0 0 0  0 0 0  0 0 0  0 0 0
0 0 0  0 0 0  0 0 0  0 0 0  0 0 0  0 0 0
0 0 0  0 0 0  0 0 0  0 0 0  0 0 0  0 0 0
0 0 0  0 0 0  0 0 0  0 0 0  0 0 0  0 0 0
0 0 0  0 0 0  0 0 0  0 0 0  0 0 0  0 0 0
0 0 0  0 0 0  0 0 0  0 0 0  0 0 0  0 0 0
0 0 0  0 0 0  0 0 0  0 0 0  0 0 0  9 1 3
9 1 3  1 0 0  0 0 0  0 0 0  0 0 0  0 0 0
0 0 0  0 0 0  0 0 0  0 0 0  0 0 0  0 0 0
0 0 0  0 0 0  0 0 0  0 0 0  0 0 0  0 0 0
0 0 0  0 0 0  0 0 0  0 0 0  0 0 0  0 0 0
0 0 0  0 0 0  0 0 0  0 0 0  0 0 0  0 0 0
0 0 0  0 0 0  0 0 0  0 0 0  0 0 0  0 0 0
0 0 0  0 0 0  0 0 0  0 0 0
